# AST/ASF file generated using VICON BodyLanguage
# -----------------------------------------------
:version 1.10
:name VICON
:units
  mass 1.0
  length 0.45
  angle deg
:documentation
   .ast/.asf automatically generated from VICON data using
   VICON BodyBuilder and BodyLanguage model FoxedUp or BRILLIANT.MOD
:root
   order TX TY TZ RX RY RZ
   axis XYZ
   position 0 0 0  
   orientation 0 0 0 
:bonedata
  begin
     id 1 
     name lhipjoint
     direction 0.650112 -0.723553 0.232005 
     length 2.45805 
     axis 0 0 0  XYZ
  end
  begin
     id 2 
     name lfemur
     direction 0.34202 -0.939693 0  
     length 7.00073  
     axis 0 0 20  XYZ
    dof rx ry rz
    limits (-160.0 20.0)
           (-70.0 70.0)
           (-60.0 70.0)
  end
  begin
     id 3 
     name ltibia
     direction 0.34202 -0.939693 0   
     length 7.8748   
     axis 0 0 20   XYZ
    dof rx
    limits (-10.0 170.0)
  end
  begin
     id 4 
     name lfoot
     direction 0.0542825 -0.14914 0.987325   
     length 1.75978   
     axis -90 7.62852e-016 20   XYZ
    dof rx rz
    limits (-45.0 90.0)
           (-70.0 20.0)
  end
  begin
     id 5 
     name ltoes
     direction 1.53509e-011 -4.21906e-011 1   
     length 0.893912   
     axis -90 7.62852e-016 20   XYZ
    dof rx
    limits (-90.0 20.0)
  end
  begin
     id 6 
     name rhipjoint
     direction -0.637897 -0.733345 0.235145   
     length 2.42522  
     axis 0 0 0  XYZ 
  end
  begin
     id 7 
     name rfemur
     direction -0.34202 -0.939693 0   
     length 7.02549   
     axis 0 0 -20   XYZ
    dof rx ry rz
    limits (-160.0 20.0)
           (-70.0 70.0)
           (-70.0 60.0)
  end
  begin
     id 8 
     name rtibia
     direction -0.34202 -0.939693 0   
     length 7.71512   
     axis 0 0 -20   XYZ
    dof rx
    limits (-10.0 170.0)
 end
 begin
     id 9 
     name rfoot
     direction -0.0822618 -0.226012 0.970645   
     length 1.90014  
     axis -90 -7.62852e-016 -20   XYZ
    dof rx rz
    limits (-45.0 90.0)
           (-20.0 70.0)
  end
  begin
     id 10 
     name rtoes
     direction -1.53542e-011 -4.21872e-011 1   
     length 0.957341   
     axis -90 -7.62852e-016 -20   XYZ
    dof rx
    limits (-90.0 20.0)
  end
  begin
     id 11 
     name lowerback
     direction -0.0022947 0.999774 -0.0211557   
     length 1.89909   
     axis 0 0 0   XYZ
    dof rx ry rz
    limits (-20.0 45.0)
           (-30.0 30.0)
           (-30.0 30.0)
  end
  begin
     id 12 
     name upperback
     direction 0.0107737 0.998635 0.0511027   
     length 1.8853   
     axis 0 0 0   XYZ
    dof rx ry rz
    limits (-20.0 45.0)
           (-30.0 30.0)
           (-30.0 30.0)
  end
  begin
     id 13 
     name thorax
     direction 0.011824 0.998136 0.0598754   
     length 1.88911   
     axis 0 0 0   XYZ
    dof rx ry rz
    limits (-20.0 45.0)
           (-30.0 30.0)
           (-30.0 30.0)
  end
  begin
     id 14 
     name lowerneck
     direction -0.0685355 0.990319 0.120714   
     length 1.91222   
     axis 0 0 0   XYZ
    dof rx ry rz
    limits (-20.0 45.0)
           (-30.0 30.0)
           (-30.0 30.0)
  end
  begin
     id 15 
     name upperneck
     direction 0.0886204 0.955665 -0.280805   
     length 1.92526   
     axis 0 0 0   XYZ
    dof rx ry rz
    limits (-20.0 45.0)
           (-30.0 30.0)
           (-30.0 30.0)
  end
  begin
     id 16
     name head
     direction 0.0233423 0.993502 -0.111393  
     length 1.96056  
     axis 0 0 0   XYZ
    dof rx ry rz
    limits (-20.0 45.0)
           (-30.0 30.0)
           (-30.0 30.0)
  end
  begin
     id 17 
     name lclavicle
     direction 0.941873 0.32922 0.0670041  
     length 3.31705  
     axis 0 0 0   XYZ
    dof ry rz
    limits (-20.0 10.0)
           (0.0 20.0)
  end
  begin
     id 18 
     name lhumerus
     direction 1 -4.4898e-011 3.38707e-028   
     length 5.29277   
     axis 180 -30 -90   XYZ
    dof rx ry rz
    limits (-60.0 90.0)
           (-90.0 90.0)
           (-90.0 90.0)
  end
  begin
     id 19
     name lradius
     direction 1 -4.48952e-011 1.63213e-028   
     length 2.85226   
     axis 180 -30 -90   XYZ
    dof rx
    limits (-10.0 170.0)
  end
  begin
     id 20
     name lwrist
     direction 1 -4.49001e-011 1.27856e-027   
     length 1.42613   
     axis -1.61767e-015 90 90   XYZ
    dof ry
    limits (-180.0 0.0)
 end
  begin
     id 21 
     name lhand
     direction 1 -4.48976e-011 2.55931e-027   
     length 0.602097   
     axis -1.63363e-015 90 90   XYZ
    dof rx rz
    limits (-90.0 90.0)
           (-45.0 45.0)
  end
  begin
     id 22 
     name lfingers
     direction 1 -4.48986e-011 5.11684e-027   
     length 0.485426   
     axis -3.26723e-015 90 90   XYZ
    dof rx
    limits (0.0 90.0)
  end
  begin
     id 23
     name lthumb
     direction 0.707107 -6.34915e-011 0.707107   
     length 0.696978   
     axis -90 45 -2.25915e-014   XYZ
    dof rx rz
    limits (-45.0 45.0)
           (-45.0 45.0)
  end
  begin
     id 24 
     name rclavicle
     direction -0.939974 0.327078 0.0973096   
     length 3.10337  
     axis 0 0 0   XYZ 
    dof ry rz
    limits (-10.0 20.0)
           (-20.0 0.0)
  end
  begin
     id 25 
     name rhumerus
     direction -1 -4.48975e-011 1.83745e-027  
     length 5.13304   
     axis 180 30 90   XYZ
    dof rx ry rz
    limits (-90.0 60.0)
           (-90.0 90.0)
           (-90.0 90.0)
  end
  begin
     id 26 
     name rradius
     direction -1 -4.48977e-011 7.1775e-029   
     length 2.74305   
     axis 180 30 90   XYZ
    dof rx
    limits (-10.0 170.0)
  end
  begin
     id 27 
     name rwrist
     direction -1 -4.48977e-011 1.27963e-027   
     length 1.37152   
     axis -1.61767e-015 -90 -90   XYZ
    dof ry
    limits (-180.0 0.0)
  end
  begin
     id 28
     name rhand
     direction -1 -4.4888e-011 2.56782e-027   
     length 0.767976   
     axis -1.63363e-015 -90 -90   XYZ
    dof rx rz
    limits (-90.0 90.0)
           (-45.0 45.0)
  end
  begin
     id 29
     name rfingers
     direction -1 -4.48947e-011 5.12384e-027   
     length 0.619162   
     axis -3.26723e-015 -90 -90   XYZ
    dof rx
    limits (0.0 90.0)
  end
  begin
     id 30
     name rthumb
     direction -0.707107 -6.34857e-011 0.707107   
     length 0.888997   
     axis -90 -45 2.25915e-014   XYZ
    dof rx rz
    limits (-45.0 45.0)
           (-45.0 45.0)
  end
:hierarchy
  begin
    root lhipjoint rhipjoint lowerback
    lhipjoint lfemur
    lfemur ltibia
    ltibia lfoot
    lfoot ltoes
    rhipjoint rfemur
    rfemur rtibia
    rtibia rfoot
    rfoot rtoes
    lowerback upperback
    upperback thorax
    thorax lowerneck lclavicle rclavicle
    lowerneck upperneck
    upperneck head
    lclavicle lhumerus
    lhumerus lradius
    lradius lwrist
    lwrist lhand lthumb
    lhand lfingers
    rclavicle rhumerus
    rhumerus rradius
    rradius rwrist
    rwrist rhand rthumb
    rhand rfingers
  end

#!OML:ASF F:\VICON\USERDATA\INSTALL\rory3\rory3.ASF
:FULLY-SPECIFIED
:DEGREES
894
root 1.67038 17.0079 -1.41707 0.295768 -3.12851 1.55169
lowerback 9.27307 -4.08281 -2.82458
upperback 10.0385 -5.74006 3.65391
thorax 6.08129 -3.24661 5.62635
lowerneck -6.69131 -4.5487 -20.3903
upperneck 16.0101 -5.15824 9.82108
head 6.79114 -2.98391 6.14343
rclavicle -6.08281e-014 6.75868e-014
rhumerus 59.1807 3.5859 -80.5464
rradius 53.8724
rwrist -38.5326
rhand -25.8433 -3.06572
rfingers 7.12502
rthumb 0.697114 -33.0443
lclavicle -6.08281e-014 6.75868e-014
lhumerus 78.9678 -27.3229 83.0775
lradius 19.6566
lwrist -0.876656
lhand -0.553615 25.995
lfingers 7.12502
lthumb 25.06 54.3709
rfemur -13.0163 10.1271 9.97962
rtibia 27.0734
rfoot -16.5806 -7.73407
rtoes -29.9676
lfemur -14.8363 -3.6021 -25.3777
ltibia 32.0392
lfoot -16.2035 2.82145
ltoes -12.2548
895
root 1.66108 17.0054 -1.41853 0.269151 -3.31035 1.50436
lowerback 9.30326 -4.12855 -3.03145
upperback 10.0531 -5.81263 3.62119
thorax 6.11068 -3.29775 5.71033
lowerneck -6.87036 -4.42916 -20.6771
upperneck 16.1788 -4.96666 10.0684
head 6.85886 -2.89355 6.29607
rclavicle -2.70347e-014 2.38542e-014
rhumerus 59.4432 3.92102 -80.0687
rradius 53.4471
rwrist -37.9266
rhand -25.2598 -3.28223
rfingers 7.12502
rthumb 1.26068 -33.2583
lclavicle -2.70347e-014 2.38542e-014
lhumerus 78.8011 -26.9177 83.4955
lradius 19.5029
lwrist -0.385982
lhand -0.601987 25.8113
lfingers 7.12502
lthumb 25.0137 54.1937
rfemur -13.042 10.1141 10.0672
rtibia 27.0603
rfoot -16.62 -7.56149
rtoes -30.1735
lfemur -14.8341 -3.5095 -25.2934
ltibia 32.1074
lfoot -16.3325 3.05231
ltoes -12.8631
896
root 1.65238 17.0057 -1.41953 0.173286 -3.46609 1.45984
lowerback 9.34444 -4.05146 -3.02645
upperback 10.0109 -5.70113 3.42848
thorax 6.00073 -3.22857 5.50484
lowerneck -6.48669 -4.29448 -20.4969
upperneck 16.1504 -4.92348 10.2733
head 6.77064 -2.85642 6.34688
rclavicle -7.7526e-014 3.89618e-014
rhumerus 59.3295 3.78639 -79.814
rradius 53.1805
rwrist -37.38
rhand -25.1124 -3.59883
rfingers 7.12502
rthumb 1.40301 -33.574
lclavicle -7.7526e-014 3.89618e-014
lhumerus 78.4981 -27.0861 83.8013
lradius 19.4159
lwrist 0.146392
lhand -0.459376 25.4484
lfingers 7.12502
lthumb 25.1503 53.8116
rfemur -13.0103 10.093 10.1622
rtibia 27.0929
rfoot -16.6703 -7.3456
rtoes -30.1723
lfemur -14.7494 -3.45934 -25.2073
ltibia 32.1591
lfoot -16.496 3.15432
ltoes -12.5901
897
root 1.64332 17.0064 -1.42153 0.111704 -3.63486 1.42449
lowerback 9.43391 -4.06892 -3.25436
upperback 10.0674 -5.73999 3.42657
thorax 6.04545 -3.26722 5.63602
lowerneck -6.74343 -4.17145 -20.7823
upperneck 16.2703 -4.70603 10.5025
head 6.83028 -2.75092 6.49425
rclavicle -2.66371e-014 -1.19271e-014
rhumerus 59.6348 4.10111 -79.3885
rradius 52.9783
rwrist -37.0812
rhand -24.9124 -3.80824
rfingers 7.12502
rthumb 1.5962 -33.782
lclavicle -2.66371e-014 -1.19271e-014
lhumerus 78.3931 -26.7276 84.3363
lradius 19.2524
lwrist 0.457982
lhand -0.366877 24.9207
lfingers 7.12502
lthumb 25.2389 53.2715
rfemur -13.0129 10.1524 10.2432
rtibia 27.1199
rfoot -16.6531 -7.25558
rtoes -30.372
lfemur -14.6852 -3.39619 -25.1335
ltibia 32.1894
lfoot -16.5626 3.22305
ltoes -12.5283
898
root 1.63525 17.0061 -1.42441 0.0956159 -3.79894 1.42483
lowerback 9.47776 -4.09074 -3.53741
upperback 10.0577 -5.785 3.40295
thorax 6.0476 -3.30892 5.77384
lowerneck -6.86177 -4.03153 -20.9801
upperneck 16.4435 -4.50483 10.7078
head 6.88103 -2.65531 6.62094
rclavicle 2.14687e-014 -1.35174e-014
rhumerus 59.8738 4.41993 -79.0731
rradius 52.6405
rwrist -36.7498
rhand -24.4787 -3.68564
rfingers 7.12502
rthumb 2.01501 -33.6559
lclavicle 2.14687e-014 -1.35174e-014
lhumerus 78.2808 -26.3692 84.5664
lradius 19.1521
lwrist 0.98771
lhand -0.385413 24.3349
lfingers 7.12502
lthumb 25.2212 52.6882
rfemur -13.0839 10.1473 10.2677
rtibia 27.157
rfoot -16.7102 -7.09303
rtoes -30.2899
lfemur -14.6513 -3.36538 -25.1054
ltibia 32.1731
lfoot -16.599 3.34579
ltoes -12.4228
899
root 1.62648 17.0063 -1.42505 0.0639025 -3.97683 1.47624
lowerback 9.44343 -4.08606 -3.78199
upperback 10.0253 -5.78707 3.28301
thorax 6.04505 -3.32028 5.78098
lowerneck -6.74898 -3.88804 -21.1156
upperneck 16.5486 -4.37464 11.0249
head 6.87907 -2.5856 6.77131
rclavicle -3.97569e-015 1.59028e-014
rhumerus 59.8941 4.636 -78.7784
rradius 52.3927
rwrist -36.4524
rhand -24.1014 -3.5785
rfingers 7.12502
rthumb 2.37938 -33.545
lclavicle -3.97569e-015 1.59028e-014
lhumerus 78.2691 -26.1844 84.2512
lradius 19.1606
lwrist 2.04654
lhand -0.562381 24.1249
lfingers 7.12502
lthumb 25.0516 52.5019
rfemur -13.1256 10.142 10.2426
rtibia 27.1764
rfoot -16.7194 -6.94815
rtoes -30.4662
lfemur -14.578 -3.3622 -25.1325
ltibia 32.1297
lfoot -16.4913 3.39288
ltoes -12.0204
900
root 1.61783 17.0063 -1.42669 0.0146496 -4.12872 1.5524
lowerback 9.37603 -4.02885 -3.93507
upperback 10.0193 -5.70997 3.08225
thorax 6.05729 -3.2821 5.64573
lowerneck -6.49629 -3.76499 -21.0672
upperneck 16.5255 -4.32592 11.3641
head 6.81888 -2.54139 6.88971
rclavicle 4.11484e-014 -6.04305e-014
rhumerus 59.8377 4.67196 -78.3545
rradius 52.1915
rwrist -36.2656
rhand -23.8919 -3.47933
rfingers 7.12502
rthumb 2.58178 -33.4435
lclavicle 4.11484e-014 -6.04305e-014
lhumerus 78.1865 -26.2457 84.0516
lradius 19.2301
lwrist 2.92537
lhand -0.99278 24.0099
lfingers 7.12502
lthumb 24.6391 52.4438
rfemur -13.1188 10.1078 10.1871
rtibia 27.1376
rfoot -16.7261 -6.72993
rtoes -30.3738
lfemur -14.5062 -3.35486 -25.1838
ltibia 32.0715
lfoot -16.3696 3.39795
ltoes -11.6117
901
root 1.60743 17.0109 -1.42785 0.00942196 -4.30818 1.4832
lowerback 9.3762 -4.07301 -4.12498
upperback 10.1087 -5.78226 3.0888
thorax 6.1904 -3.33859 5.75628
lowerneck -7.07065 -3.66806 -21.3507
upperneck 16.8564 -4.07081 11.5248
head 6.99198 -2.42143 7.02262
rclavicle -7.35503e-015 -3.02153e-014
rhumerus 60.2179 5.17068 -77.6077
rradius 51.9987
rwrist -36.027
rhand -23.9124 -3.61674
rfingers 7.12502
rthumb 2.56194 -33.5811
lclavicle -7.35503e-015 -3.02153e-014
lhumerus 78.1199 -25.7894 84.6125
lradius 19.1398
lwrist 3.37389
lhand -1.42675 23.9305
lfingers 7.12502
lthumb 24.2231 52.4206
rfemur -13.105 10.2056 10.3029
rtibia 27.0263
rfoot -16.6698 -6.61975
rtoes -30.1866
lfemur -14.4639 -3.3322 -25.0581
ltibia 32.0111
lfoot -16.4936 3.42159
ltoes -10.2628
902
root 1.59704 17.0196 -1.43072 -0.0198373 -4.52144 1.3173
lowerback 9.36923 -3.96515 -4.10965
upperback 10.0762 -5.63325 2.98196
thorax 6.12119 -3.2549 5.63208
lowerneck -6.88788 -3.57215 -21.1109
upperneck 16.9801 -4.03816 11.6319
head 6.98626 -2.39278 7.02896
rclavicle 6.75868e-015 2.82274e-014
rhumerus 60.1789 5.20165 -77.0434
rradius 51.7914
rwrist -35.6183
rhand -23.9977 -3.72523
rfingers 7.12502
rthumb 2.47959 -33.6906
lclavicle 6.75868e-015 2.82274e-014
lhumerus 77.8188 -25.9067 85.0956
lradius 19.0384
lwrist 4.03076
lhand -2.45917 23.547
lfingers 7.12502
lthumb 23.2329 52.1656
rfemur -13.0386 10.3447 10.5447
rtibia 26.8632
rfoot -16.5767 -6.57046
rtoes -30.2665
lfemur -14.3785 -3.30059 -24.8365
ltibia 31.9736
lfoot -16.5845 3.77819
ltoes -11.4044
903
root 1.58704 17.0239 -1.43163 -0.0835927 -4.76232 1.24544
lowerback 9.4197 -3.99112 -4.39353
upperback 10.1159 -5.68739 2.99818
thorax 6.18154 -3.30663 5.81125
lowerneck -7.12213 -3.4095 -21.3275
upperneck 17.1534 -3.77662 11.8291
head 7.04393 -2.2668 7.16352
rclavicle 5.30755e-014 -2.42517e-014
rhumerus 60.4743 5.72016 -76.4292
rradius 51.5306
rwrist -35.4311
rhand -24.2905 -3.74936
rfingers 7.12502
rthumb 2.19682 -33.7178
lclavicle 5.30755e-014 -2.42517e-014
lhumerus 77.4186 -25.2765 86.2842
lradius 18.7384
lwrist 3.64124
lhand -2.59258 22.9424
lfingers 7.12502
lthumb 23.1049 51.577
rfemur -12.944 10.4061 10.6742
rtibia 26.6782
rfoot -16.5054 -6.39846
rtoes -30.3714
lfemur -14.2557 -3.24669 -24.7324
ltibia 31.9682
lfoot -16.5888 4.06655
ltoes -12.4425
904
root 1.57793 17.0254 -1.43157 -0.119216 -4.95993 1.11971
lowerback 9.34751 -4.02584 -4.5264
upperback 10.2182 -5.74171 2.98854
thorax 6.35811 -3.3512 5.86578
lowerneck -7.40469 -3.28596 -21.5582
upperneck 17.3063 -3.56595 12.0958
head 7.1125 -2.15877 7.32112
rclavicle -2.88238e-014 1.39149e-014
rhumerus 60.8444 6.17162 -75.8046
rradius 51.2325
rwrist -35.1266
rhand -24.8877 -3.84053
rfingers 7.12502
rthumb 1.62002 -33.8141
lclavicle -2.88238e-014 1.39149e-014
lhumerus 76.9428 -24.6275 87.9459
lradius 18.359
lwrist 2.44403
lhand -0.991552 23.0432
lfingers 7.12502
lthumb 24.6403 51.477
rfemur -12.8574 10.4565 10.8513
rtibia 26.4956
rfoot -16.4444 -6.19365
rtoes -30.4053
lfemur -14.1908 -3.24322 -24.5606
ltibia 31.9901
lfoot -16.6712 4.19803
ltoes -12.1741
